P3
63 80
255
0 0 0 0 0 0 0 0 0 0 0 0 0 0 0 0 0 0 0 0 0 0 0 0 
0 0 0 0 0 0 0 0 0 0 0 0 0 0 0 0 0 0 0 0 0 0 0 0 
0 0 0 0 0 0 0 0 0 0 0 0 0 0 0 0 0 0 0 0 0 0 0 0 
0 0 0 0 0 0 0 0 0 0 0 0 0 0 0 0 0 0 0 0 0 0 0 0 
0 0 0 0 0 0 0 0 0 0 0 0 0 0 0 0 0 0 0 0 0 0 0 0 
0 0 0 0 0 0 0 0 0 0 0 0 0 0 0 0 0 0 0 0 0 0 0 0 
0 0 0 0 0 0 0 0 0 0 0 0 0 0 0 0 0 0 0 0 0 0 0 0 
0 0 0 0 0 0 0 0 0 0 0 0 0 0 0 0 0 0 0 0 0 
0 0 0 0 0 0 0 0 0 0 0 0 0 0 0 0 0 0 0 0 0 0 0 0 
0 0 0 0 0 0 0 0 0 0 0 0 0 0 0 0 0 0 0 0 0 0 0 0 
0 0 0 0 0 0 0 0 0 0 0 0 0 0 0 0 0 0 0 0 0 0 0 0 
0 0 0 0 0 0 0 0 0 0 0 0 0 0 0 0 0 0 0 0 0 0 0 0 
0 0 0 0 0 0 0 0 0 0 0 0 0 0 0 0 0 0 0 0 0 0 0 0 
0 0 0 0 0 0 0 0 0 0 0 0 0 0 0 0 0 0 0 0 0 0 0 0 
0 0 0 0 0 0 0 0 0 0 0 0 0 0 0 0 0 0 0 0 0 0 0 0 
0 0 0 0 0 0 0 0 0 0 0 0 0 0 0 0 0 0 0 0 0 
0 0 0 0 0 0 0 0 0 0 0 0 0 0 0 0 0 0 0 0 0 0 0 0 
0 0 0 0 0 0 0 0 0 0 0 0 0 0 0 0 0 0 0 0 0 0 0 0 
0 0 0 0 0 0 0 0 0 0 0 0 0 0 0 0 0 0 0 0 0 0 0 0 
0 0 0 0 0 0 0 0 0 0 0 0 0 0 0 0 0 0 0 0 0 0 0 0 
0 0 0 0 0 0 0 0 0 0 0 0 0 0 0 0 0 0 0 0 0 0 0 0 
0 0 0 0 0 0 0 0 0 0 0 0 0 0 0 0 0 0 0 0 0 0 0 0 
0 0 0 0 0 0 0 0 0 0 0 0 0 0 0 0 0 0 0 0 0 0 0 0 
0 0 0 0 0 0 0 0 0 0 0 0 0 0 0 0 0 0 0 0 0 
0 0 0 0 0 0 0 0 0 0 0 0 0 0 0 0 0 0 0 0 0 0 0 0 
0 0 0 0 0 0 0 0 0 0 0 0 0 0 0 0 0 0 0 0 0 0 0 0 
0 0 0 0 0 0 0 0 0 0 0 0 0 0 0 0 0 0 0 0 0 0 0 0 
0 0 0 0 0 0 0 0 0 0 0 0 0 0 0 0 0 0 0 0 0 0 0 0 
0 0 0 0 0 0 0 0 0 0 0 0 0 0 0 0 0 0 0 0 0 0 0 0 
0 0 0 0 0 0 0 0 0 0 0 0 0 0 0 0 0 0 0 0 0 0 0 0 
0 0 0 0 0 0 0 0 0 0 0 0 0 0 0 0 0 0 0 0 0 0 0 0 
0 0 0 0 0 0 0 0 0 0 0 0 0 0 0 0 0 0 0 0 0 
0 0 0 0 0 0 0 0 0 0 0 0 0 0 0 0 0 0 0 0 0 0 0 0 
0 0 0 0 0 0 0 0 0 0 0 0 0 0 0 0 0 0 0 0 0 0 0 0 
0 0 0 0 0 0 0 0 0 0 0 0 0 0 0 0 0 0 0 0 0 0 0 0 
0 0 0 0 0 0 0 0 0 0 0 0 0 0 0 0 0 0 0 0 0 0 0 0 
0 0 0 0 0 0 0 0 0 0 0 0 0 0 0 0 0 0 0 0 0 0 0 0 
0 0 0 0 0 0 0 0 0 0 0 0 0 0 0 0 0 0 0 0 0 0 0 0 
0 0 0 0 0 0 0 0 0 0 0 0 0 0 0 0 0 0 0 0 0 0 0 0 
0 0 0 0 0 0 0 0 0 0 0 0 0 0 0 0 0 0 0 0 0 
0 0 0 0 0 0 0 0 0 0 0 0 0 0 0 0 0 0 0 0 0 0 0 0 
0 0 0 0 0 0 0 0 0 0 0 0 0 0 0 0 0 0 0 0 0 0 0 0 
0 0 0 0 0 0 0 0 0 0 0 0 0 0 0 0 0 0 0 0 0 0 0 0 
0 0 0 0 0 0 0 0 0 0 0 0 0 0 0 0 0 0 0 0 0 0 0 0 
0 0 0 0 0 0 0 0 0 0 0 0 0 0 0 0 0 0 0 0 0 0 0 0 
0 0 0 0 0 0 0 0 0 0 0 0 0 0 0 0 0 0 0 0 0 0 0 0 
0 0 0 0 0 0 0 0 0 0 0 0 0 0 0 0 0 0 0 0 0 0 0 0 
0 0 0 0 0 0 0 0 0 0 0 0 0 0 0 0 0 0 0 0 0 
0 0 0 0 0 0 0 0 0 0 0 0 0 0 0 0 0 0 0 0 0 0 0 0 
0 0 0 0 0 0 0 0 0 0 0 0 0 0 0 0 0 0 0 0 0 0 0 0 
0 0 0 0 0 0 0 0 0 0 0 0 0 0 0 0 0 0 0 0 0 0 0 0 
0 0 0 0 0 0 0 0 0 0 0 0 0 0 0 0 0 0 0 0 0 0 0 0 
0 0 0 0 0 0 0 0 0 0 0 0 0 0 0 0 0 0 0 0 0 0 0 0 
0 0 0 0 0 0 0 0 0 0 0 0 0 0 0 0 0 0 0 0 0 0 0 0 
0 0 0 0 0 0 0 0 0 0 0 0 0 0 0 0 0 0 0 0 0 0 0 0 
0 0 0 0 0 0 0 0 0 0 0 0 0 0 0 0 0 0 0 0 0 
0 0 0 0 0 0 0 0 0 0 0 0 0 0 0 0 0 0 0 0 0 0 0 0 
0 0 0 0 0 0 0 0 0 0 0 0 0 0 0 0 0 0 0 0 0 0 0 0 
0 0 0 0 0 0 0 0 0 0 0 0 0 0 0 0 0 0 0 0 0 0 0 0 
0 0 0 0 0 0 0 0 0 0 0 0 0 0 0 0 0 0 0 0 0 0 0 0 
0 0 0 0 0 0 0 0 0 0 0 0 0 0 0 0 0 0 0 0 0 0 0 0 
0 0 0 0 0 0 0 0 0 0 0 0 0 0 0 0 0 0 0 0 0 0 0 0 
0 0 0 0 0 0 0 0 0 0 0 0 0 0 0 0 0 0 0 0 0 0 0 0 
0 0 0 0 0 0 0 0 0 0 0 0 0 0 0 0 0 0 0 0 0 
0 0 0 0 0 0 0 0 0 0 0 0 0 0 0 0 0 0 0 0 0 0 0 0 
0 0 0 0 0 0 81 68 67 81 68 67 47 47 43 79 74 74 0 0 0 0 0 0 
0 0 0 0 0 0 0 0 0 0 0 0 0 0 0 0 0 0 0 0 0 0 0 0 
0 0 0 0 0 0 0 0 0 0 0 0 0 0 0 0 0 0 0 0 0 0 0 0 
0 0 0 0 0 0 0 0 0 0 0 0 0 0 0 0 0 0 0 0 0 0 0 0 
0 0 0 0 0 0 60 63 53 0 0 0 0 0 0 0 0 0 0 0 0 0 0 0 
0 0 0 0 0 0 0 0 0 0 0 0 0 0 0 0 0 0 0 0 0 0 0 0 
0 0 0 0 0 0 0 0 0 0 0 0 0 0 0 0 0 0 0 0 0 
0 0 0 0 0 0 0 0 0 0 0 0 0 0 0 0 0 0 0 0 0 0 0 0 
0 0 0 115 114 114 208 199 199 183 176 175 196 195 195 187 184 184 0 0 0 0 0 0 
0 0 0 0 0 0 0 0 0 0 0 0 0 0 0 0 0 0 0 0 0 0 0 0 
0 0 0 0 0 0 0 0 0 0 0 0 0 0 0 0 0 0 0 0 0 0 0 0 
0 0 0 0 0 0 0 0 0 0 0 0 0 0 0 0 0 0 0 0 0 0 0 0 
0 0 0 127 125 125 180 180 180 167 165 165 142 142 142 155 155 155 142 136 131 66 68 70 
0 0 0 0 0 0 1 3 0 0 0 0 0 0 0 0 0 0 0 0 0 0 0 0 
0 0 0 0 0 0 0 0 0 0 0 0 0 0 0 0 0 0 0 0 0 
0 0 0 0 0 0 0 0 0 0 0 0 0 0 0 0 0 0 0 0 0 0 0 0 
0 0 0 128 121 118 196 195 195 210 207 207 187 184 184 95 83 81 48 56 63 76 90 97 
76 90 97 76 90 97 46 52 53 0 0 0 0 0 0 0 0 0 0 0 0 0 0 0 
0 0 0 0 0 0 0 0 0 0 0 0 0 0 0 0 0 0 0 0 0 0 0 0 
0 0 0 0 0 0 0 0 0 0 0 0 0 0 0 0 0 0 0 0 0 0 0 0 
115 114 114 201 201 201 197 199 197 177 177 177 170 173 167 201 201 201 201 201 201 210 207 207 
168 157 120 103 75 8 113 97 56 101 76 19 0 0 0 0 0 0 0 0 0 0 0 0 
0 0 0 0 0 0 0 0 0 0 0 0 0 0 0 0 0 0 0 0 0 
0 0 0 0 0 0 0 0 0 0 0 0 0 0 0 0 0 0 0 0 0 0 0 0 
0 0 0 210 207 207 227 227 227 167 165 165 104 111 120 123 138 139 178 175 152 185 176 142 
185 176 142 168 157 120 165 149 118 101 104 105 48 56 63 0 0 0 0 0 0 0 0 0 
0 0 0 0 0 0 0 0 0 0 0 0 0 0 0 0 0 0 0 0 0 0 0 0 
0 0 0 0 0 0 0 0 0 0 0 0 0 0 0 0 0 0 0 0 0 0 0 0 
102 97 96 197 199 197 187 189 186 175 175 175 167 165 165 193 194 193 196 195 195 210 207 207 
168 157 120 128 107 59 146 148 144 80 64 13 0 0 0 0 0 0 0 0 0 0 0 0 
0 0 0 0 0 0 0 0 0 0 0 0 0 0 0 0 0 0 0 0 0 
0 0 0 0 0 0 0 0 0 12 28 6 39 72 25 39 72 25 39 72 25 39 72 25 
39 72 25 187 189 186 168 167 167 137 144 147 170 173 167 233 204 137 217 184 98 201 158 74 
184 151 67 184 151 67 201 158 74 184 156 91 124 109 93 66 68 70 12 28 6 16 35 9 
30 58 19 38 71 24 39 72 25 39 72 25 39 72 25 39 72 25 12 28 6 0 0 0 
0 0 0 30 58 19 39 72 25 39 72 25 39 72 25 39 72 25 39 72 25 39 72 25 
39 72 25 162 163 162 201 201 201 190 190 190 168 167 167 175 175 175 187 184 184 210 207 207 
164 144 93 127 125 125 183 176 175 170 133 51 80 64 13 12 28 6 25 47 16 35 65 24 
39 72 25 39 72 25 39 72 25 30 58 19 0 0 0 0 0 0 0 0 0 
0 0 0 0 0 0 0 0 0 39 72 25 89 154 62 89 154 62 89 154 62 89 154 62 
89 154 62 88 152 61 108 140 101 175 177 169 233 204 137 184 156 91 96 76 35 80 91 30 
96 100 36 128 107 59 156 104 61 168 142 69 184 151 67 108 107 86 48 56 63 41 70 28 
64 112 44 82 143 57 88 153 62 89 154 62 89 154 62 89 154 62 39 72 25 0 0 0 
0 0 0 71 125 49 89 154 62 89 154 62 89 154 62 89 154 62 89 154 62 89 154 62 
89 154 62 98 141 80 197 199 197 201 201 201 175 175 175 168 167 167 162 163 162 175 175 175 
136 86 39 144 112 94 158 114 34 156 104 61 115 114 114 27 51 18 52 93 35 78 136 54 
88 152 61 89 154 62 89 154 62 70 122 48 0 0 0 0 0 0 0 0 0 
0 0 0 0 0 0 0 0 0 12 28 6 39 72 25 61 107 42 82 143 57 89 154 62 
89 154 62 86 147 61 137 144 147 233 204 137 184 156 91 80 64 13 80 64 13 96 76 35 
136 86 39 156 104 61 164 144 93 165 149 118 143 132 78 154 128 45 79 74 74 25 47 16 
48 85 32 69 120 48 57 100 39 38 71 24 25 47 16 16 35 9 6 12 3 0 0 0 
0 0 0 12 28 6 16 35 9 30 58 19 47 83 31 73 128 50 89 154 62 89 154 62 
89 154 62 89 154 62 145 158 142 211 211 211 180 180 180 155 155 155 155 155 155 128 121 118 
130 93 21 136 86 39 107 95 79 146 148 144 193 194 193 28 42 15 45 77 31 73 126 51 
86 148 60 71 125 49 50 89 34 27 51 18 0 0 0 0 0 0 0 0 0 
0 0 0 0 0 0 0 0 0 0 0 0 0 0 0 0 0 0 1 3 0 64 112 44 
89 154 62 108 140 101 193 183 154 217 184 98 80 91 30 113 97 56 124 109 93 107 120 77 
156 104 61 144 112 94 164 162 134 178 175 152 178 175 152 154 128 45 113 97 56 46 52 53 
35 65 24 16 35 9 0 0 0 0 0 0 0 0 0 0 0 0 0 0 0 0 0 0 
0 0 0 0 0 0 0 0 0 0 0 0 0 0 0 0 0 0 70 122 48 89 154 62 
89 154 62 89 154 62 88 151 61 145 158 142 193 194 193 142 136 131 113 97 56 115 84 17 
130 93 21 93 93 93 146 148 144 175 175 175 193 194 193 46 52 53 35 65 24 58 103 40 
30 58 19 0 0 0 0 0 0 0 0 0 0 0 0 0 0 0 0 0 0 
0 0 0 0 0 0 0 0 0 0 0 0 0 0 0 0 0 0 0 0 0 0 0 0 
64 108 42 123 138 139 233 204 137 184 151 67 113 97 56 164 162 134 193 183 154 164 162 134 
164 144 93 144 112 94 178 175 152 193 183 154 201 200 188 165 149 118 129 101 20 48 56 63 
28 42 15 0 0 0 0 0 0 0 0 0 0 0 0 0 0 0 0 0 0 0 0 0 
0 0 0 0 0 0 0 0 0 0 0 0 0 0 0 0 0 0 42 76 28 89 154 62 
89 154 62 89 154 62 89 154 62 88 152 61 97 97 57 108 79 32 96 76 35 108 79 32 
136 86 39 146 148 144 175 175 175 175 175 175 190 190 190 187 189 186 82 90 72 12 28 6 
0 0 0 0 0 0 0 0 0 0 0 0 0 0 0 0 0 0 0 0 0 
0 0 0 0 0 0 0 0 0 0 0 0 0 0 0 0 0 0 0 0 0 0 0 0 
0 0 0 104 111 120 233 204 137 168 142 69 107 120 77 178 175 152 208 208 199 178 175 152 
168 157 120 141 137 102 193 183 154 201 200 188 218 217 214 178 175 152 129 101 20 48 56 63 
28 42 15 0 0 0 0 0 0 0 0 0 0 0 0 0 0 0 0 0 0 0 0 0 
0 0 0 0 0 0 0 0 0 0 0 0 0 0 0 0 0 0 50 89 34 89 154 62 
89 154 62 89 154 62 89 154 62 89 153 62 80 133 54 80 64 13 115 109 109 108 107 86 
128 107 59 175 175 175 180 180 180 168 167 167 175 175 175 197 199 197 197 199 197 79 74 74 
0 0 0 0 0 0 0 0 0 0 0 0 0 0 0 0 0 0 0 0 0 
0 0 0 0 0 0 0 0 0 0 0 0 0 0 0 0 0 0 0 0 0 0 0 0 
0 0 0 104 111 120 233 204 137 154 128 45 96 76 35 141 137 102 164 162 134 164 162 134 
165 149 118 165 149 118 178 175 152 208 208 199 231 231 231 175 177 169 120 90 11 48 56 63 
27 51 18 16 35 9 0 0 0 0 0 0 0 0 0 0 0 0 0 0 0 0 0 0 
0 0 0 0 0 0 0 0 0 0 0 0 0 0 0 0 0 0 74 130 51 89 154 62 
89 154 62 89 154 62 89 154 62 86 148 60 80 91 30 95 69 5 96 76 35 97 97 57 
128 107 59 177 177 177 177 177 177 175 175 175 155 155 155 175 175 175 201 201 201 190 190 190 
1 3 0 0 0 0 0 0 0 0 0 0 0 0 0 0 0 0 0 0 0 
0 0 0 0 0 0 0 0 0 0 0 0 0 0 0 0 0 0 0 0 0 0 0 0 
0 0 0 76 90 97 185 176 142 184 151 67 80 64 13 113 97 56 143 132 78 141 137 102 
165 149 118 164 162 134 164 162 134 208 208 199 228 227 220 141 137 102 108 79 32 46 52 53 
34 58 24 52 93 35 6 12 3 0 0 0 0 0 0 0 0 0 0 0 0 0 0 0 
0 0 0 0 0 0 0 0 0 0 0 0 0 0 0 52 93 35 89 154 62 89 154 62 
89 154 62 89 154 62 86 148 60 96 100 36 114 79 9 114 79 9 95 69 5 64 58 11 
96 76 35 167 165 165 155 155 155 155 155 155 142 142 142 162 163 162 177 177 177 218 217 214 
162 163 162 0 0 0 0 0 0 0 0 0 0 0 0 0 0 0 0 0 0 
0 0 0 0 0 0 0 0 0 0 0 0 0 0 0 0 0 0 0 0 0 0 0 0 
0 0 0 46 52 53 146 148 144 201 158 74 103 87 19 80 91 30 113 97 56 143 132 78 
141 137 102 164 162 134 122 118 115 123 123 123 146 148 144 120 90 11 74 60 55 30 35 27 
41 70 28 69 120 48 61 106 42 0 0 0 0 0 0 0 0 0 0 0 0 0 0 0 
0 0 0 0 0 0 0 0 0 0 0 0 25 47 16 86 148 60 89 154 62 89 154 62 
89 154 62 86 148 60 114 106 36 129 91 13 129 91 13 103 75 8 46 52 13 45 77 31 
61 106 42 79 123 58 107 120 77 111 122 103 93 93 93 123 123 123 162 163 162 187 184 184 
193 194 193 66 68 70 0 0 0 0 0 0 0 0 0 0 0 0 0 0 0 
0 0 0 0 0 0 0 0 0 0 0 0 0 0 0 0 0 0 0 0 0 0 0 0 
0 0 0 0 0 0 76 90 97 168 157 120 184 151 67 103 87 19 96 100 36 107 120 77 
141 137 102 141 137 102 142 136 131 128 121 118 115 84 17 101 76 19 46 52 53 25 47 16 
50 87 34 76 132 52 86 149 60 38 71 24 0 0 0 0 0 0 0 0 0 0 0 0 
0 0 0 0 0 0 0 0 0 0 0 0 73 128 50 89 154 62 89 154 62 89 154 62 
86 149 60 114 106 36 146 105 17 146 105 17 115 84 17 38 56 21 47 83 31 69 120 48 
82 141 56 86 149 60 85 147 59 55 97 38 0 0 0 0 0 0 0 0 0 60 63 53 
84 94 81 0 0 0 0 0 0 0 0 0 0 0 0 0 0 0 0 0 0 
0 0 0 0 0 0 0 0 0 0 0 0 0 0 0 0 0 0 0 0 0 0 0 0 
0 0 0 0 0 0 15 19 16 101 104 105 164 144 93 170 133 51 138 104 36 113 97 56 
107 120 77 124 109 93 107 95 79 120 90 11 101 76 19 48 56 63 30 35 27 25 47 16 
47 83 31 71 125 49 84 145 58 80 139 56 6 12 3 0 0 0 0 0 0 0 0 0 
0 0 0 0 0 0 0 0 0 52 93 35 89 154 62 89 154 62 89 154 62 88 152 61 
114 106 36 157 115 21 157 115 21 130 93 21 38 56 21 46 81 32 69 120 48 83 144 58 
88 152 61 89 154 62 78 136 54 1 3 0 0 0 0 0 0 0 0 0 0 0 0 0 
0 0 0 0 0 0 0 0 0 0 0 0 0 0 0 0 0 0 0 0 0 
0 0 0 0 0 0 0 0 0 0 0 0 0 0 0 0 0 0 0 0 0 0 0 0 
0 0 0 0 0 0 0 0 0 15 19 16 76 90 97 124 109 93 154 128 45 150 114 24 
138 103 18 129 101 20 115 84 17 74 60 55 48 56 63 79 74 74 79 74 74 95 83 81 
60 63 53 56 92 40 74 128 52 86 148 60 64 112 44 0 0 0 0 0 0 0 0 0 
0 0 0 0 0 0 25 47 16 86 148 60 89 154 62 89 154 62 89 153 62 134 131 48 
167 118 25 171 128 27 157 115 21 64 58 11 42 76 28 67 114 47 83 144 58 88 152 61 
89 154 62 87 151 61 30 58 19 0 0 0 0 0 0 0 0 0 0 0 0 0 0 0 
0 0 0 0 0 0 0 0 0 0 0 0 0 0 0 0 0 0 0 0 0 
0 0 0 0 0 0 0 0 0 0 0 0 0 0 0 0 0 0 0 0 0 0 0 0 
0 0 0 0 0 0 0 0 0 0 0 0 0 0 0 46 52 53 76 90 97 79 74 74 
79 74 74 66 68 70 48 56 63 79 74 74 115 114 114 115 114 114 115 114 114 127 125 125 
66 68 70 41 70 28 61 106 42 79 138 55 87 150 60 38 71 24 0 0 0 0 0 0 
0 0 0 0 0 0 74 130 51 89 154 62 89 154 62 89 154 62 98 141 59 182 128 30 
182 128 30 182 128 30 101 76 19 35 65 24 61 106 42 80 139 56 88 152 61 89 154 62 
89 154 62 57 100 39 0 0 0 0 0 0 0 0 0 0 0 0 0 0 0 0 0 0 
0 0 0 0 0 0 0 0 0 0 0 0 0 0 0 0 0 0 0 0 0 
0 0 0 0 0 0 0 0 0 0 0 0 0 0 0 0 0 0 0 0 0 0 0 0 
0 0 0 0 0 0 0 0 0 0 0 0 0 0 0 0 0 0 38 71 24 78 136 54 
73 126 51 69 120 48 69 120 48 115 141 119 158 149 148 142 142 142 115 114 114 60 63 53 
93 93 93 92 94 80 46 81 32 65 114 45 82 143 57 80 139 56 12 28 6 0 0 0 
0 0 0 52 93 35 89 154 62 89 154 62 89 154 62 85 147 59 170 133 51 185 133 37 
198 140 32 167 118 25 27 51 18 50 87 34 74 130 51 87 150 60 89 154 62 89 154 62 
76 132 52 0 0 0 0 0 0 0 0 0 0 0 0 0 0 0 0 0 0 0 0 0 
0 0 0 0 0 0 0 0 0 0 0 0 0 0 0 0 0 0 0 0 0 
0 0 0 0 0 0 0 0 0 0 0 0 0 0 0 0 0 0 0 0 0 0 0 0 
0 0 0 0 0 0 0 0 0 0 0 0 0 0 0 0 0 0 0 0 0 64 112 44 
87 150 61 86 149 60 86 148 60 145 158 142 196 195 195 127 125 125 79 74 74 115 114 114 
127 125 125 79 74 74 30 54 20 52 90 35 71 125 49 85 146 58 64 112 44 0 0 0 
25 47 16 86 149 60 89 154 62 89 154 62 89 154 62 134 131 48 185 133 37 198 140 32 
198 140 32 101 76 19 35 65 24 65 114 45 83 144 58 89 153 62 89 154 62 87 150 60 
27 51 18 0 0 0 0 0 0 0 0 0 0 0 0 0 0 0 0 0 0 0 0 0 
0 0 0 0 0 0 0 0 0 0 0 0 0 0 0 0 0 0 0 0 0 
0 0 0 0 0 0 0 0 0 0 0 0 0 0 0 0 0 0 0 0 0 0 0 0 
0 0 0 0 0 0 0 0 0 0 0 0 0 0 0 0 0 0 0 0 0 12 28 6 
82 141 56 89 154 62 89 154 62 98 141 80 108 140 101 123 123 123 155 155 155 122 118 115 
60 63 53 102 97 96 122 118 115 35 65 24 60 104 41 80 139 56 88 152 61 39 72 25 
74 130 51 89 154 62 89 154 62 89 154 62 84 145 58 170 133 51 185 133 37 198 140 32 
182 128 30 27 51 18 50 87 34 76 132 52 87 151 61 89 154 62 89 154 62 52 93 35 
0 0 0 0 0 0 0 0 0 0 0 0 0 0 0 0 0 0 0 0 0 0 0 0 
0 0 0 0 0 0 0 0 0 0 0 0 0 0 0 0 0 0 0 0 0 
0 0 0 0 0 0 0 0 0 0 0 0 0 0 0 0 0 0 0 0 0 0 0 0 
0 0 0 0 0 0 0 0 0 0 0 0 0 0 0 0 0 0 0 0 0 0 0 0 
38 71 24 88 153 62 89 154 62 89 154 62 98 141 80 210 207 207 142 136 131 79 74 74 
122 118 115 128 121 118 79 74 74 30 54 20 55 97 38 78 136 54 88 152 61 86 149 60 
89 154 62 89 154 62 89 154 62 88 151 61 154 128 45 186 139 47 185 133 37 198 140 32 
115 84 17 35 65 24 64 112 44 83 144 58 89 153 62 89 154 62 74 130 51 0 0 0 
0 0 0 0 0 0 0 0 0 0 0 0 0 0 0 0 0 0 0 0 0 0 0 0 
0 0 0 0 0 0 0 0 0 0 0 0 0 0 0 0 0 0 0 0 0 
0 0 0 0 0 0 0 0 0 0 0 0 0 0 0 0 0 0 0 0 0 0 0 0 
0 0 0 0 0 0 0 0 0 0 0 0 0 0 0 0 0 0 0 0 0 0 0 0 
0 0 0 64 112 44 89 154 62 89 154 62 89 154 62 79 138 55 134 145 124 168 167 167 
127 125 125 66 68 70 60 63 53 25 47 16 47 83 31 73 126 51 86 149 60 89 153 62 
89 154 62 89 154 62 87 150 61 134 131 48 186 139 47 185 133 37 185 133 37 182 128 30 
25 47 16 48 85 32 74 130 51 87 150 61 89 154 62 86 148 60 25 47 16 0 0 0 
0 0 0 0 0 0 0 0 0 0 0 0 0 0 0 0 0 0 0 0 0 0 0 0 
0 0 0 0 0 0 0 0 0 0 0 0 0 0 0 0 0 0 0 0 0 
0 0 0 0 0 0 0 0 0 0 0 0 0 0 0 0 0 0 0 0 0 0 0 0 
0 0 0 0 0 0 0 0 0 0 0 0 0 0 0 0 0 0 0 0 0 0 0 0 
0 0 0 6 12 3 80 139 56 89 154 62 89 154 62 89 153 62 175 177 169 146 148 144 
93 93 93 123 123 123 93 93 93 47 47 43 34 62 22 58 103 40 79 138 55 88 151 61 
89 154 62 87 150 60 184 151 67 201 158 74 186 139 47 185 133 37 182 128 30 115 84 17 
34 62 22 61 107 42 82 143 57 88 153 62 89 154 62 50 89 34 0 0 0 0 0 0 
0 0 0 0 0 0 0 0 0 0 0 0 0 0 0 0 0 0 0 0 0 0 0 0 
0 0 0 0 0 0 0 0 0 0 0 0 0 0 0 0 0 0 0 0 0 
0 0 0 0 0 0 0 0 0 0 0 0 0 0 0 0 0 0 0 0 0 0 0 0 
0 0 0 0 0 0 0 0 0 0 0 0 0 0 0 0 0 0 0 0 0 0 0 0 
0 0 0 0 0 0 35 65 24 88 152 61 89 154 62 89 154 62 88 152 61 83 144 58 
108 140 101 162 163 162 123 123 123 84 94 81 30 35 27 41 70 28 65 114 45 83 144 58 
88 152 62 184 156 91 217 184 98 184 151 67 185 133 37 171 128 27 167 118 25 28 42 15 
46 81 32 73 126 51 86 149 60 89 154 62 73 126 51 0 0 0 0 0 0 0 0 0 
0 0 0 0 0 0 0 0 0 0 0 0 0 0 0 0 0 0 0 0 0 0 0 0 
0 0 0 0 0 0 0 0 0 0 0 0 0 0 0 0 0 0 0 0 0 
0 0 0 0 0 0 0 0 0 0 0 0 0 0 0 0 0 0 0 0 0 0 0 0 
0 0 0 0 0 0 0 0 0 0 0 0 0 0 0 0 0 0 0 0 0 0 0 0 
0 0 0 0 0 0 0 0 0 61 107 42 89 154 62 89 154 62 89 154 62 88 152 62 
87 150 61 145 158 142 155 155 155 115 114 114 66 68 70 32 49 19 47 83 31 71 125 49 
98 141 59 217 184 98 201 158 74 186 139 47 158 114 34 167 118 25 115 84 17 34 58 24 
58 103 40 81 140 57 88 153 62 84 145 58 16 35 9 0 0 0 0 0 0 0 0 0 
0 0 0 0 0 0 0 0 0 0 0 0 0 0 0 0 0 0 0 0 0 0 0 0 
0 0 0 0 0 0 0 0 0 0 0 0 0 0 0 0 0 0 0 0 0 
0 0 0 0 0 0 0 0 0 0 0 0 0 0 0 0 0 0 0 0 0 0 0 0 
0 0 0 0 0 0 0 0 0 0 0 0 0 0 0 0 0 0 0 0 0 0 0 0 
0 0 0 0 0 0 0 0 0 1 3 0 78 136 54 89 154 62 89 154 62 89 154 62 
89 154 62 86 147 61 162 163 162 142 142 142 101 104 105 60 63 53 30 54 20 55 97 38 
143 132 78 201 158 74 184 151 67 170 133 51 158 114 34 150 114 24 32 49 19 42 76 28 
71 122 50 86 148 60 89 154 62 48 85 32 0 0 0 0 0 0 0 0 0 0 0 0 
0 0 0 0 0 0 0 0 0 0 0 0 0 0 0 0 0 0 0 0 0 0 0 0 
0 0 0 0 0 0 0 0 0 0 0 0 0 0 0 0 0 0 0 0 0 
0 0 0 0 0 0 0 0 0 0 0 0 0 0 0 0 0 0 0 0 0 0 0 0 
0 0 0 0 0 0 0 0 0 0 0 0 0 0 0 0 0 0 0 0 0 0 0 0 
0 0 0 0 0 0 0 0 0 0 0 0 30 58 19 87 151 61 89 154 62 89 154 62 
89 154 62 89 153 62 108 140 101 167 165 165 139 130 127 93 93 93 60 63 53 47 68 37 
128 107 59 168 142 69 170 133 51 158 114 34 138 104 36 108 79 32 30 54 20 55 97 38 
79 138 55 88 152 61 70 122 48 0 0 0 0 0 0 0 0 0 0 0 0 0 0 0 
0 0 0 0 0 0 0 0 0 0 0 0 0 0 0 0 0 0 0 0 0 0 0 0 
0 0 0 0 0 0 0 0 0 0 0 0 0 0 0 0 0 0 0 0 0 
0 0 0 0 0 0 0 0 0 0 0 0 0 0 0 0 0 0 0 0 0 0 0 0 
0 0 0 0 0 0 0 0 0 0 0 0 0 0 0 0 0 0 0 0 0 0 0 0 
0 0 0 0 0 0 0 0 0 0 0 0 0 0 0 58 103 40 89 154 62 89 154 62 
89 154 62 89 154 62 89 153 62 134 145 124 162 163 162 115 109 109 128 121 118 102 97 96 
96 76 35 138 104 36 139 115 38 138 104 36 138 104 36 64 58 11 41 70 28 67 114 47 
84 145 58 83 144 58 16 35 9 0 0 0 0 0 0 0 0 0 0 0 0 0 0 0 
0 0 0 0 0 0 0 0 0 0 0 0 0 0 0 0 0 0 0 0 0 0 0 0 
0 0 0 0 0 0 0 0 0 0 0 0 0 0 0 0 0 0 0 0 0 
0 0 0 0 0 0 0 0 0 0 0 0 0 0 0 0 0 0 0 0 0 0 0 0 
0 0 0 0 0 0 0 0 0 0 0 0 0 0 0 0 0 0 0 0 0 0 0 0 
0 0 0 0 0 0 0 0 0 0 0 0 0 0 0 0 0 0 76 132 52 89 154 62 
89 154 62 89 154 62 89 154 62 85 146 58 162 163 162 146 148 144 102 97 96 41 70 28 
80 91 30 113 97 56 138 104 36 136 86 39 96 76 35 35 65 24 55 97 38 77 134 54 
87 151 61 42 76 28 0 0 0 0 0 0 0 0 0 0 0 0 0 0 0 0 0 0 
0 0 0 0 0 0 0 0 0 0 0 0 0 0 0 0 0 0 0 0 0 0 0 0 
0 0 0 0 0 0 0 0 0 0 0 0 0 0 0 0 0 0 0 0 0 
0 0 0 0 0 0 0 0 0 0 0 0 0 0 0 0 0 0 0 0 0 0 0 0 
0 0 0 0 0 0 0 0 0 0 0 0 0 0 0 0 0 0 0 0 0 0 0 0 
0 0 0 0 0 0 0 0 0 0 0 0 0 0 0 0 0 0 30 54 20 87 150 60 
89 154 62 89 154 62 89 154 62 86 149 60 170 173 167 111 122 103 57 100 39 64 108 42 
76 132 52 78 131 53 96 100 36 80 91 30 55 97 38 61 106 42 74 128 52 85 147 59 
65 114 45 0 0 0 0 0 0 0 0 0 0 0 0 0 0 0 0 0 0 0 0 0 
0 0 0 0 0 0 0 0 0 0 0 0 0 0 0 0 0 0 0 0 0 0 0 0 
0 0 0 0 0 0 0 0 0 0 0 0 0 0 0 0 0 0 0 0 0 
0 0 0 0 0 0 0 0 0 0 0 0 0 0 0 0 0 0 0 0 0 0 0 0 
0 0 0 0 0 0 0 0 0 0 0 0 0 0 0 0 0 0 0 0 0 0 0 0 
0 0 0 0 0 0 0 0 0 0 0 0 0 0 0 0 0 0 0 0 0 55 97 38 
89 154 62 89 154 62 89 154 62 89 154 62 88 152 61 83 144 58 79 138 55 82 143 57 
86 149 60 86 148 60 80 139 56 77 134 54 78 136 54 82 141 56 86 149 60 81 140 57 
12 28 6 0 0 0 0 0 0 0 0 0 0 0 0 0 0 0 0 0 0 0 0 0 
0 0 0 0 0 0 0 0 0 0 0 0 0 0 0 0 0 0 0 0 0 0 0 0 
0 0 0 0 0 0 0 0 0 0 0 0 0 0 0 0 0 0 0 0 0 
0 0 0 0 0 0 0 0 0 0 0 0 0 0 0 0 0 0 0 0 0 0 0 0 
0 0 0 0 0 0 0 0 0 0 0 0 0 0 0 0 0 0 0 0 0 0 0 0 
0 0 0 0 0 0 0 0 0 0 0 0 0 0 0 0 0 0 0 0 0 0 0 0 
84 145 58 89 154 62 89 154 62 89 154 62 89 153 62 88 152 61 87 151 61 88 152 62 
83 138 60 77 99 58 65 114 45 65 114 45 78 136 54 86 149 60 89 153 62 55 97 38 
0 0 0 0 0 0 0 0 0 0 0 0 0 0 0 0 0 0 0 0 0 0 0 0 
0 0 0 0 0 0 0 0 0 0 0 0 0 0 0 0 0 0 0 0 0 0 0 0 
0 0 0 0 0 0 0 0 0 0 0 0 0 0 0 0 0 0 0 0 0 
0 0 0 0 0 0 0 0 0 0 0 0 0 0 0 0 0 0 0 0 0 0 0 0 
0 0 0 0 0 0 0 0 0 0 0 0 0 0 0 0 0 0 0 0 0 0 0 0 
0 0 0 0 0 0 0 0 0 0 0 0 0 0 0 0 0 0 0 0 0 58 103 40 
89 154 62 89 154 62 89 154 62 89 153 62 86 149 60 82 143 57 81 140 57 84 145 58 
122 118 115 115 109 109 73 80 58 45 77 31 64 112 44 81 140 57 88 152 61 83 144 58 
12 28 6 0 0 0 0 0 0 0 0 0 0 0 0 0 0 0 0 0 0 0 0 0 
0 0 0 0 0 0 0 0 0 0 0 0 0 0 0 0 0 0 0 0 0 0 0 0 
0 0 0 0 0 0 0 0 0 0 0 0 0 0 0 0 0 0 0 0 0 
0 0 0 0 0 0 0 0 0 0 0 0 0 0 0 0 0 0 0 0 0 0 0 0 
0 0 0 0 0 0 0 0 0 0 0 0 0 0 0 0 0 0 0 0 0 0 0 0 
0 0 0 0 0 0 0 0 0 0 0 0 0 0 0 0 0 0 30 58 19 87 151 61 
89 154 62 89 154 62 89 153 62 98 141 59 134 131 48 96 100 36 57 100 39 68 118 47 
81 132 59 139 120 119 102 97 96 47 68 37 46 81 32 69 120 48 82 143 57 85 146 58 
65 114 45 0 0 0 0 0 0 0 0 0 0 0 0 0 0 0 0 0 0 0 0 0 
0 0 0 0 0 0 0 0 0 0 0 0 0 0 0 0 0 0 0 0 0 0 0 0 
0 0 0 0 0 0 0 0 0 0 0 0 0 0 0 0 0 0 0 0 0 
0 0 0 0 0 0 0 0 0 0 0 0 0 0 0 0 0 0 0 0 0 0 0 0 
0 0 0 0 0 0 0 0 0 0 0 0 0 0 0 0 0 0 0 0 0 0 0 0 
0 0 0 0 0 0 0 0 0 0 0 0 0 0 0 0 0 0 77 134 54 89 154 62 
89 154 62 89 154 62 98 141 59 171 128 27 186 139 47 150 114 24 64 58 11 45 77 31 
67 114 47 107 120 77 139 120 119 73 80 58 41 70 28 56 92 40 65 110 45 71 125 49 
74 128 52 35 65 24 0 0 0 0 0 0 0 0 0 0 0 0 0 0 0 0 0 0 
0 0 0 0 0 0 0 0 0 0 0 0 0 0 0 0 0 0 0 0 0 0 0 0 
0 0 0 0 0 0 0 0 0 0 0 0 0 0 0 0 0 0 0 0 0 
0 0 0 0 0 0 0 0 0 0 0 0 0 0 0 0 0 0 0 0 0 0 0 0 
0 0 0 0 0 0 0 0 0 0 0 0 0 0 0 0 0 0 0 0 0 0 0 0 
0 0 0 0 0 0 0 0 0 0 0 0 0 0 0 58 103 40 89 154 62 89 154 62 
89 154 62 88 152 61 154 128 45 201 158 74 184 156 91 139 115 38 103 75 8 30 54 20 
55 97 38 78 136 54 79 123 58 95 83 81 92 74 73 82 90 72 93 105 74 92 94 80 
77 99 58 64 108 42 12 28 6 0 0 0 0 0 0 0 0 0 0 0 0 0 0 0 
0 0 0 0 0 0 0 0 0 0 0 0 0 0 0 0 0 0 0 0 0 0 0 0 
0 0 0 0 0 0 0 0 0 0 0 0 0 0 0 0 0 0 0 0 0 
0 0 0 0 0 0 0 0 0 0 0 0 0 0 0 0 0 0 0 0 0 0 0 0 
0 0 0 0 0 0 0 0 0 0 0 0 0 0 0 0 0 0 0 0 0 0 0 0 
0 0 0 0 0 0 0 0 0 0 0 0 30 58 19 87 151 61 89 154 62 89 154 62 
89 154 62 102 121 57 184 151 67 184 156 91 164 144 93 130 93 21 95 69 5 25 47 16 
50 87 34 77 134 54 93 105 74 82 90 72 57 100 39 61 107 42 74 128 52 79 138 55 
93 105 74 67 114 47 52 90 35 0 0 0 0 0 0 0 0 0 0 0 0 0 0 0 
0 0 0 0 0 0 0 0 0 0 0 0 0 0 0 0 0 0 0 0 0 0 0 0 
0 0 0 0 0 0 0 0 0 0 0 0 0 0 0 0 0 0 0 0 0 
0 0 0 0 0 0 0 0 0 0 0 0 0 0 0 0 0 0 0 0 0 0 0 0 
0 0 0 0 0 0 0 0 0 0 0 0 0 0 0 0 0 0 0 0 0 0 0 0 
0 0 0 0 0 0 0 0 0 1 3 0 78 136 54 89 154 62 89 154 62 89 154 62 
85 147 59 171 128 27 168 142 69 168 142 69 139 115 38 103 75 8 80 64 13 27 51 18 
55 97 38 78 136 54 93 105 74 71 125 49 67 114 47 77 134 54 85 147 59 88 152 61 
83 145 58 93 105 74 68 118 47 34 62 22 0 0 0 0 0 0 0 0 0 0 0 0 
0 0 0 0 0 0 0 0 0 0 0 0 0 0 0 0 0 0 0 0 0 0 0 0 
0 0 0 0 0 0 0 0 0 0 0 0 0 0 0 0 0 0 0 0 0 
0 0 0 0 0 0 0 0 0 0 0 0 0 0 0 0 0 0 0 0 0 0 0 0 
0 0 0 0 0 0 0 0 0 0 0 0 0 0 0 0 0 0 0 0 0 0 0 0 
0 0 0 0 0 0 0 0 0 61 106 42 89 154 62 89 154 62 89 154 62 89 153 62 
134 131 48 171 128 27 158 114 34 138 104 36 115 84 17 95 69 5 46 52 13 42 76 28 
67 114 47 74 130 51 93 105 74 70 122 48 70 122 48 82 143 57 88 152 62 88 152 61 
84 145 58 82 90 72 64 112 44 61 106 42 12 28 6 0 0 0 0 0 0 0 0 0 
0 0 0 0 0 0 0 0 0 0 0 0 0 0 0 0 0 0 0 0 0 0 0 0 
0 0 0 0 0 0 0 0 0 0 0 0 0 0 0 0 0 0 0 0 0 
0 0 0 0 0 0 0 0 0 0 0 0 0 0 0 0 0 0 0 0 0 0 0 0 
0 0 0 0 0 0 0 0 0 0 0 0 0 0 0 0 0 0 0 0 0 0 0 0 
0 0 0 0 0 0 34 62 22 87 151 61 89 154 62 89 154 62 89 154 62 98 141 59 
171 128 27 157 115 21 138 103 18 115 84 17 95 69 5 46 52 13 41 70 28 61 107 42 
80 139 56 80 139 56 93 105 74 70 122 48 69 120 48 81 140 57 86 149 60 77 99 58 
73 80 58 73 80 58 48 85 32 58 103 40 58 103 40 0 0 0 0 0 0 0 0 0 
0 0 0 0 0 0 0 0 0 0 0 0 0 0 0 0 0 0 0 0 0 0 0 0 
0 0 0 0 0 0 0 0 0 0 0 0 0 0 0 0 0 0 0 0 0 
0 0 0 0 0 0 0 0 0 0 0 0 0 0 0 0 0 0 0 0 0 0 0 0 
0 0 0 0 0 0 0 0 0 0 0 0 0 0 0 0 0 0 0 0 0 0 0 0 
0 0 0 1 3 0 78 136 54 89 154 62 89 154 62 89 154 62 88 151 61 150 114 24 
157 115 21 146 105 17 120 90 11 103 75 8 64 58 11 35 65 24 58 103 40 78 136 54 
87 150 61 89 153 62 93 105 74 71 125 49 67 114 47 65 110 45 71 122 50 93 105 74 
81 68 67 60 63 53 30 54 20 46 81 32 69 120 48 42 76 28 0 0 0 0 0 0 
0 0 0 0 0 0 0 0 0 0 0 0 0 0 0 0 0 0 0 0 0 0 0 0 
0 0 0 0 0 0 0 0 0 0 0 0 0 0 0 0 0 0 0 0 0 
0 0 0 0 0 0 0 0 0 0 0 0 0 0 0 0 0 0 0 0 0 0 0 0 
0 0 0 0 0 0 0 0 0 0 0 0 0 0 0 0 0 0 0 0 0 0 0 0 
0 0 0 61 107 42 89 154 62 89 154 62 89 154 62 89 154 62 102 121 57 167 118 25 
146 105 17 120 90 11 103 75 8 64 58 11 34 58 24 55 97 38 77 134 54 86 149 60 
89 154 62 89 154 62 86 141 60 93 105 74 67 114 47 61 92 45 92 74 73 124 109 93 
107 84 84 81 68 67 81 68 67 34 58 24 52 90 35 65 114 45 12 28 6 0 0 0 
0 0 0 0 0 0 0 0 0 0 0 0 0 0 0 0 0 0 102 97 96 47 47 43 
0 0 0 0 0 0 0 0 0 0 0 0 0 0 0 0 0 0 0 0 0 
0 0 0 0 0 0 0 0 0 0 0 0 0 0 0 0 0 0 0 0 0 0 0 0 
0 0 0 0 0 0 0 0 0 0 0 0 0 0 0 0 0 0 0 0 0 0 0 0 
34 62 22 87 151 61 89 154 62 89 154 62 89 154 62 85 146 58 157 115 21 150 114 24 
129 101 20 114 79 9 80 64 13 30 54 20 52 90 35 74 128 52 86 148 60 79 138 55 
89 154 62 89 154 62 89 153 62 86 141 60 93 105 74 73 80 58 74 60 55 114 93 93 
92 74 73 60 63 53 95 83 81 92 74 73 41 70 28 52 90 35 52 90 35 0 0 0 
0 0 0 0 0 0 0 0 0 0 0 0 0 0 0 79 74 74 81 68 67 30 35 27 
0 0 0 0 0 0 0 0 0 0 0 0 0 0 0 0 0 0 0 0 0 
0 0 0 0 0 0 0 0 0 0 0 0 0 0 0 0 0 0 0 0 0 0 0 0 
0 0 0 0 0 0 0 0 0 0 0 0 0 0 0 0 0 0 0 0 0 1 3 0 
79 138 55 89 154 62 89 154 62 89 154 62 89 153 62 139 115 38 157 115 21 138 103 18 
120 90 11 95 69 5 32 49 19 48 85 32 71 122 50 85 147 59 86 149 60 27 51 18 
65 114 45 89 154 62 89 154 62 89 153 62 87 150 61 83 144 58 77 99 58 92 74 73 
60 63 53 34 58 24 60 63 53 107 84 84 92 74 73 47 68 37 50 87 34 30 58 19 
0 0 0 0 0 0 60 63 53 74 60 55 95 83 81 74 60 55 0 0 0 0 0 0 
0 0 0 0 0 0 0 0 0 0 0 0 0 0 0 0 0 0 0 0 0 
0 0 0 0 0 0 0 0 0 0 0 0 0 0 0 0 0 0 0 0 0 66 68 70 
155 155 155 30 35 27 0 0 0 0 0 0 0 0 0 0 0 0 0 0 0 61 107 42 
89 154 62 89 154 62 89 154 62 89 154 62 98 141 59 157 115 21 146 105 17 120 90 11 
103 75 8 32 49 19 45 77 31 68 118 47 83 144 58 88 153 62 52 93 35 0 0 0 
12 28 6 82 141 56 89 154 62 89 154 62 89 154 62 88 153 62 84 145 58 95 83 81 
92 74 73 41 70 28 50 87 34 65 110 45 107 84 84 114 93 93 60 63 53 46 81 32 
6 12 3 79 74 74 158 149 148 81 68 67 47 47 43 0 0 0 0 0 0 0 0 0 
0 0 0 0 0 0 0 0 0 0 0 0 0 0 0 0 0 0 0 0 0 
0 0 0 0 0 0 0 0 0 0 0 0 0 0 0 0 0 0 84 94 81 187 184 184 
190 190 190 139 130 127 0 0 0 0 0 0 0 0 0 0 0 0 34 62 22 88 152 61 
89 154 62 89 154 62 89 154 62 85 147 59 150 114 24 146 105 17 129 91 13 103 75 8 
46 52 13 41 70 28 64 108 42 81 140 57 88 152 61 74 130 51 0 0 0 0 0 0 
0 0 0 38 71 24 88 153 62 89 154 62 89 154 62 89 154 62 89 154 62 93 105 74 
114 93 93 47 68 37 46 81 32 68 118 47 78 131 53 124 109 93 139 130 127 73 80 58 
34 58 24 81 68 67 139 130 127 81 68 67 47 47 43 0 0 0 0 0 0 0 0 0 
0 0 0 0 0 0 0 0 0 0 0 0 0 0 0 0 0 0 0 0 0 
0 0 0 0 0 0 0 0 0 0 0 0 0 0 0 46 52 53 177 177 177 187 189 186 
197 199 197 146 148 144 79 74 74 0 0 0 0 0 0 6 12 3 79 138 55 89 154 62 
89 154 62 89 154 62 89 153 62 134 131 48 157 115 21 138 103 18 114 79 9 64 58 11 
34 58 24 57 100 39 78 136 54 87 151 61 86 148 60 25 47 16 0 0 0 0 0 0 
0 0 0 0 0 0 64 112 44 89 154 62 89 154 62 89 154 62 89 154 62 86 141 60 
114 93 93 95 83 81 45 77 31 58 103 40 80 139 56 83 144 58 111 122 103 139 130 127 
107 84 84 30 35 27 15 19 16 0 0 0 0 0 0 0 0 0 0 0 0 0 0 0 
0 0 0 0 0 0 0 0 0 0 0 0 0 0 0 0 0 0 0 0 0 
0 0 0 0 0 0 0 0 0 0 0 0 0 0 0 155 155 155 187 184 184 193 194 193 
201 201 201 210 207 207 201 201 201 47 47 43 0 0 0 52 90 35 84 145 58 88 153 62 
89 154 62 89 154 62 98 141 59 150 114 24 146 105 17 129 101 20 95 69 5 30 54 20 
52 90 35 74 128 52 86 149 60 89 153 62 50 89 34 0 0 0 0 0 0 0 0 0 
0 0 0 0 0 0 6 12 3 80 139 56 89 154 62 89 154 62 89 154 62 89 154 62 
107 120 77 114 93 93 45 77 31 50 87 34 73 126 51 82 143 57 108 107 86 164 145 135 
114 93 93 79 74 74 6 12 3 0 0 0 0 0 0 0 0 0 0 0 0 0 0 0 
0 0 0 0 0 0 0 0 0 0 0 0 0 0 0 0 0 0 0 0 0 
0 0 0 0 0 0 0 0 0 0 0 0 115 114 114 187 184 184 190 190 190 201 201 201 
211 211 211 221 221 220 235 235 234 197 199 197 6 12 3 50 87 34 73 126 51 85 146 58 
88 153 62 86 149 60 129 101 20 138 103 18 138 103 18 115 84 17 32 49 19 46 81 32 
70 122 48 84 145 58 89 153 62 73 126 51 0 0 0 0 0 0 0 0 0 0 0 0 
0 0 0 0 0 0 0 0 0 35 65 24 88 152 61 89 154 62 89 154 62 89 154 62 
86 141 60 122 118 115 82 90 72 46 81 32 60 104 41 107 95 79 73 80 58 82 90 72 
82 90 72 158 149 148 95 83 81 0 0 0 0 0 0 0 0 0 0 0 0 0 0 0 
0 0 0 0 0 0 0 0 0 0 0 0 0 0 0 0 0 0 0 0 0 
0 0 0 0 0 0 0 0 0 47 47 43 180 180 180 187 184 184 197 199 197 210 207 207 
221 221 220 231 231 231 240 240 240 248 248 248 197 199 197 30 54 20 52 90 35 73 126 51 
84 145 58 96 100 36 129 101 20 129 91 13 120 90 11 64 58 11 41 70 28 64 112 44 
82 143 57 88 152 61 85 146 58 16 35 9 0 0 0 0 0 0 0 0 0 0 0 0 
0 0 0 0 0 0 0 0 0 0 0 0 61 107 42 89 154 62 89 154 62 89 154 62 
89 154 62 111 122 103 115 109 109 73 80 58 81 68 67 60 63 53 55 97 38 64 112 44 
74 128 52 81 132 59 139 130 127 95 83 81 0 0 0 0 0 0 0 0 0 0 0 0 
0 0 0 0 0 0 0 0 0 0 0 0 0 0 0 0 0 0 0 0 0 
0 0 0 0 0 0 0 0 0 155 155 155 180 180 180 193 194 193 201 201 201 218 217 214 
227 227 227 235 235 234 246 246 246 248 248 248 248 248 248 197 199 197 47 68 37 52 90 35 
64 108 42 103 75 8 115 84 17 115 84 17 80 64 13 34 58 24 57 100 39 78 136 54 
87 151 61 89 154 62 50 89 34 0 0 0 0 0 0 0 0 0 0 0 0 0 0 0 
0 0 0 0 0 0 0 0 0 0 0 0 6 12 3 80 139 56 89 154 62 89 154 62 
89 154 62 107 120 77 158 149 148 114 93 93 25 47 16 41 70 28 64 112 44 79 138 55 
86 149 60 88 152 61 83 144 58 139 130 127 115 109 109 0 0 0 0 0 0 0 0 0 
0 0 0 0 0 0 0 0 0 0 0 0 0 0 0 0 0 0 0 0 0 
0 0 0 0 0 0 0 0 0 127 125 125 190 190 190 201 201 201 211 211 211 221 221 220 
235 235 234 246 246 246 248 248 248 248 248 248 248 248 248 248 248 248 221 221 220 115 114 114 
64 58 11 95 69 5 103 75 8 95 69 5 27 51 18 52 90 35 74 128 52 86 149 60 
89 153 62 74 130 51 0 0 0 0 0 0 0 0 0 0 0 0 0 0 0 0 0 0 
0 0 0 0 0 0 0 0 0 0 0 0 0 0 0 38 71 24 89 154 62 89 154 62 
89 154 62 98 141 80 139 120 119 107 84 84 35 65 24 46 81 32 71 125 49 86 149 60 
89 154 62 89 154 62 89 153 62 86 148 60 134 145 124 122 118 115 0 0 0 0 0 0 
0 0 0 0 0 0 0 0 0 0 0 0 0 0 0 0 0 0 0 0 0 
0 0 0 0 0 0 142 136 131 93 93 93 123 123 123 180 180 180 211 211 211 227 227 227 
240 240 240 248 248 248 248 248 248 248 248 248 248 248 248 246 246 246 235 235 234 240 240 240 
218 217 214 139 130 127 80 64 13 28 42 15 42 76 28 68 118 47 84 145 58 89 153 62 
89 154 62 34 62 22 0 0 0 0 0 0 0 0 0 0 0 0 0 0 0 0 0 0 
0 0 0 0 0 0 0 0 0 0 0 0 0 0 0 0 0 0 71 125 49 89 154 62 
89 154 62 89 153 62 81 132 59 139 130 127 50 87 34 52 90 35 73 126 51 86 149 60 
89 154 62 89 154 62 89 154 62 89 154 62 88 152 61 108 140 101 139 130 127 0 0 0 
0 0 0 0 0 0 0 0 0 0 0 0 0 0 0 0 0 0 0 0 0 
0 0 0 0 0 0 187 184 184 193 194 193 193 194 193 201 201 201 221 221 220 235 235 234 
246 246 246 248 248 248 248 248 248 248 248 248 248 248 248 235 235 234 211 211 211 235 235 234 
248 248 248 246 246 246 142 136 131 27 51 18 52 90 35 77 134 54 88 151 61 89 154 62 
81 140 57 0 0 0 0 0 0 0 0 0 0 0 0 0 0 0 0 0 0 0 0 0 
0 0 0 0 0 0 0 0 0 0 0 0 0 0 0 0 0 0 52 93 35 89 154 62 
89 154 62 89 154 62 88 153 62 128 121 118 93 105 74 55 97 38 67 114 47 84 145 58 
89 153 62 89 154 62 89 154 62 89 154 62 89 154 62 88 152 61 93 105 74 142 142 142 
0 0 0 0 0 0 0 0 0 0 0 0 0 0 0 0 0 0 0 0 0 
0 0 0 0 0 0 201 201 201 201 201 201 211 211 211 221 221 220 231 231 231 240 240 240 
248 248 248 248 248 248 248 248 248 248 248 248 240 240 240 201 201 201 187 189 186 227 227 227 
248 248 248 246 246 246 187 184 184 27 51 18 55 97 38 79 138 55 88 152 62 89 154 62 
83 144 58 0 0 0 0 0 0 0 0 0 0 0 0 0 0 0 0 0 0 0 0 0 
0 0 0 0 0 0 0 0 0 0 0 0 0 0 0 0 0 0 55 97 38 89 154 62 
89 154 62 89 154 62 89 154 62 98 141 80 139 130 127 60 104 41 61 106 42 78 136 54 
88 152 61 89 154 62 89 154 62 89 154 62 89 154 62 89 154 62 87 150 60 61 92 45 
79 74 74 0 0 0 0 0 0 0 0 0 0 0 0 0 0 0 0 0 0 
0 0 0 0 0 0 175 175 175 196 195 195 218 217 214 227 227 227 240 240 240 246 246 246 
248 248 248 248 248 248 248 248 248 246 246 246 221 221 220 170 173 167 201 201 201 155 155 155 
231 231 231 227 227 227 139 130 127 30 54 20 57 100 39 80 139 56 88 153 62 89 154 62 
89 154 62 61 107 42 0 0 0 0 0 0 0 0 0 0 0 0 0 0 0 0 0 0 
0 0 0 0 0 0 0 0 0 0 0 0 0 0 0 30 58 19 83 144 58 89 154 62 
89 154 62 89 154 62 89 154 62 88 153 62 142 136 131 77 99 58 58 103 40 71 125 49 
86 148 60 89 154 62 89 154 62 89 154 62 89 154 62 89 154 62 89 154 62 87 150 60 
52 93 35 0 0 0 0 0 0 0 0 0 0 0 0 0 0 0 0 0 0 
0 0 0 0 0 0 0 0 0 16 35 9 50 89 34 108 140 101 175 177 169 221 221 220 
248 248 248 248 248 248 248 248 248 235 235 234 201 201 201 146 148 144 155 155 155 142 142 142 
180 180 180 168 167 167 60 63 53 41 70 28 67 114 47 84 145 58 89 153 62 89 154 62 
89 154 62 89 154 62 83 144 58 69 120 48 58 103 40 42 76 28 0 0 0 0 0 0 
0 0 0 16 35 9 55 97 38 64 112 44 74 130 51 88 152 61 89 154 62 89 154 62 
89 154 62 89 154 62 89 154 62 89 154 62 98 141 80 134 145 124 61 107 42 67 114 47 
82 143 57 88 153 62 89 154 62 89 154 62 89 154 62 89 154 62 89 154 62 89 154 62 
89 154 62 82 143 57 64 112 44 42 76 28 0 0 0 0 0 0 0 0 0 
0 0 0 0 0 0 0 0 0 38 71 24 86 149 60 85 147 59 83 144 58 80 139 56 
115 141 119 197 199 197 246 246 246 231 231 231 227 227 227 201 201 201 139 130 127 123 123 123 
162 163 162 84 94 81 34 58 24 57 100 39 78 136 54 88 151 61 89 154 62 89 154 62 
89 154 62 89 154 62 89 154 62 89 154 62 89 154 62 73 128 50 0 0 0 0 0 0 
0 0 0 39 72 25 89 154 62 89 154 62 89 154 62 89 154 62 89 154 62 89 154 62 
89 154 62 89 154 62 89 154 62 89 154 62 88 152 61 146 148 144 65 114 45 64 112 44 
77 134 54 87 151 61 89 154 62 89 154 62 89 154 62 89 154 62 89 154 62 89 154 62 
89 154 62 89 154 62 89 154 62 70 122 48 0 0 0 0 0 0 0 0 0 
0 0 0 0 0 0 0 0 0 0 0 0 0 0 0 0 0 0 0 0 0 0 0 0 
0 0 0 0 0 0 101 104 105 227 227 227 246 246 246 246 246 246 227 227 227 190 190 190 
115 109 109 0 0 0 0 0 0 0 0 0 0 0 0 0 0 0 0 0 0 0 0 0 
0 0 0 0 0 0 0 0 0 0 0 0 0 0 0 0 0 0 0 0 0 0 0 0 
0 0 0 0 0 0 0 0 0 0 0 0 0 0 0 0 0 0 0 0 0 0 0 0 
0 0 0 0 0 0 0 0 0 0 0 0 0 0 0 102 97 96 102 97 96 0 0 0 
0 0 0 0 0 0 0 0 0 0 0 0 0 0 0 0 0 0 0 0 0 0 0 0 
0 0 0 0 0 0 0 0 0 0 0 0 0 0 0 0 0 0 0 0 0 
0 0 0 0 0 0 0 0 0 0 0 0 0 0 0 0 0 0 0 0 0 0 0 0 
0 0 0 0 0 0 13 8 1 107 95 79 235 235 234 246 246 246 227 227 227 142 142 142 
15 19 16 0 0 0 0 0 0 0 0 0 0 0 0 0 0 0 0 0 0 0 0 0 
0 0 0 0 0 0 0 0 0 0 0 0 0 0 0 0 0 0 0 0 0 0 0 0 
0 0 0 0 0 0 0 0 0 0 0 0 0 0 0 0 0 0 0 0 0 0 0 0 
0 0 0 0 0 0 0 0 0 0 0 0 0 0 0 0 0 0 142 136 131 0 0 0 
0 0 0 0 0 0 0 0 0 0 0 0 0 0 0 0 0 0 0 0 0 0 0 0 
0 0 0 0 0 0 0 0 0 0 0 0 0 0 0 0 0 0 0 0 0 
0 0 0 0 0 0 0 0 0 0 0 0 0 0 0 0 0 0 0 0 0 0 0 0 
0 0 0 0 0 0 13 8 1 80 64 13 122 118 115 210 207 207 142 142 142 30 35 27 
0 0 0 0 0 0 0 0 0 0 0 0 0 0 0 0 0 0 0 0 0 0 0 0 
0 0 0 0 0 0 0 0 0 0 0 0 0 0 0 0 0 0 0 0 0 0 0 0 
0 0 0 0 0 0 0 0 0 0 0 0 0 0 0 0 0 0 0 0 0 0 0 0 
0 0 0 0 0 0 0 0 0 0 0 0 0 0 0 0 0 0 115 109 109 60 63 53 
0 0 0 0 0 0 0 0 0 0 0 0 0 0 0 0 0 0 0 0 0 0 0 0 
0 0 0 0 0 0 0 0 0 0 0 0 0 0 0 0 0 0 0 0 0 
0 0 0 0 0 0 0 0 0 0 0 0 0 0 0 0 0 0 0 0 0 0 0 0 
0 0 0 0 0 0 0 0 0 13 8 1 46 52 13 13 8 1 0 0 0 0 0 0 
0 0 0 0 0 0 0 0 0 0 0 0 0 0 0 0 0 0 0 0 0 0 0 0 
0 0 0 0 0 0 0 0 0 0 0 0 0 0 0 0 0 0 0 0 0 0 0 0 
0 0 0 0 0 0 0 0 0 0 0 0 0 0 0 0 0 0 0 0 0 0 0 0 
0 0 0 0 0 0 0 0 0 0 0 0 0 0 0 0 0 0 0 0 0 30 35 27 
0 0 0 0 0 0 0 0 0 0 0 0 0 0 0 0 0 0 0 0 0 0 0 0 
0 0 0 0 0 0 0 0 0 0 0 0 0 0 0 0 0 0 0 0 0 
0 0 0 0 0 0 0 0 0 0 0 0 0 0 0 0 0 0 0 0 0 0 0 0 
0 0 0 0 0 0 0 0 0 0 0 0 0 0 0 0 0 0 0 0 0 0 0 0 
0 0 0 0 0 0 0 0 0 0 0 0 0 0 0 0 0 0 0 0 0 0 0 0 
0 0 0 0 0 0 0 0 0 0 0 0 0 0 0 0 0 0 0 0 0 0 0 0 
0 0 0 0 0 0 0 0 0 0 0 0 0 0 0 0 0 0 0 0 0 0 0 0 
0 0 0 0 0 0 0 0 0 0 0 0 0 0 0 0 0 0 0 0 0 0 0 0 
0 0 0 0 0 0 0 0 0 0 0 0 0 0 0 0 0 0 0 0 0 0 0 0 
0 0 0 0 0 0 0 0 0 0 0 0 0 0 0 0 0 0 0 0 0 
0 0 0 0 0 0 0 0 0 0 0 0 0 0 0 0 0 0 0 0 0 0 0 0 
0 0 0 0 0 0 0 0 0 0 0 0 0 0 0 0 0 0 0 0 0 0 0 0 
0 0 0 0 0 0 0 0 0 0 0 0 0 0 0 0 0 0 0 0 0 0 0 0 
0 0 0 0 0 0 0 0 0 0 0 0 0 0 0 0 0 0 0 0 0 0 0 0 
0 0 0 0 0 0 0 0 0 0 0 0 0 0 0 0 0 0 0 0 0 0 0 0 
0 0 0 0 0 0 0 0 0 0 0 0 0 0 0 0 0 0 0 0 0 0 0 0 
0 0 0 0 0 0 0 0 0 0 0 0 0 0 0 0 0 0 0 0 0 0 0 0 
0 0 0 0 0 0 0 0 0 0 0 0 0 0 0 0 0 0 0 0 0 
0 0 0 0 0 0 0 0 0 0 0 0 0 0 0 0 0 0 0 0 0 0 0 0 
0 0 0 0 0 0 0 0 0 0 0 0 0 0 0 0 0 0 0 0 0 0 0 0 
0 0 0 0 0 0 0 0 0 0 0 0 0 0 0 0 0 0 0 0 0 0 0 0 
0 0 0 0 0 0 0 0 0 0 0 0 0 0 0 0 0 0 0 0 0 0 0 0 
0 0 0 0 0 0 0 0 0 0 0 0 0 0 0 0 0 0 0 0 0 0 0 0 
0 0 0 0 0 0 0 0 0 0 0 0 0 0 0 0 0 0 0 0 0 0 0 0 
0 0 0 0 0 0 0 0 0 0 0 0 0 0 0 0 0 0 0 0 0 0 0 0 
0 0 0 0 0 0 0 0 0 0 0 0 0 0 0 0 0 0 0 0 0 
0 0 0 0 0 0 0 0 0 0 0 0 0 0 0 0 0 0 0 0 0 0 0 0 
0 0 0 0 0 0 0 0 0 0 0 0 0 0 0 0 0 0 0 0 0 0 0 0 
0 0 0 0 0 0 0 0 0 0 0 0 0 0 0 0 0 0 0 0 0 0 0 0 
0 0 0 0 0 0 0 0 0 0 0 0 0 0 0 0 0 0 0 0 0 0 0 0 
0 0 0 0 0 0 0 0 0 0 0 0 0 0 0 0 0 0 0 0 0 0 0 0 
0 0 0 0 0 0 0 0 0 0 0 0 0 0 0 0 0 0 0 0 0 0 0 0 
0 0 0 0 0 0 0 0 0 0 0 0 0 0 0 0 0 0 0 0 0 0 0 0 
0 0 0 0 0 0 0 0 0 0 0 0 0 0 0 0 0 0 0 0 0 
0 0 0 0 0 0 0 0 0 0 0 0 0 0 0 0 0 0 0 0 0 0 0 0 
0 0 0 0 0 0 0 0 0 0 0 0 0 0 0 0 0 0 0 0 0 0 0 0 
0 0 0 0 0 0 0 0 0 0 0 0 0 0 0 0 0 0 0 0 0 0 0 0 
0 0 0 0 0 0 0 0 0 0 0 0 0 0 0 0 0 0 0 0 0 0 0 0 
0 0 0 0 0 0 0 0 0 0 0 0 0 0 0 0 0 0 0 0 0 0 0 0 
0 0 0 0 0 0 0 0 0 0 0 0 0 0 0 0 0 0 0 0 0 0 0 0 
0 0 0 0 0 0 0 0 0 0 0 0 0 0 0 0 0 0 0 0 0 0 0 0 
0 0 0 0 0 0 0 0 0 0 0 0 0 0 0 0 0 0 0 0 0 
0 0 0 0 0 0 0 0 0 0 0 0 0 0 0 0 0 0 0 0 0 0 0 0 
0 0 0 0 0 0 0 0 0 0 0 0 0 0 0 0 0 0 0 0 0 0 0 0 
0 0 0 0 0 0 0 0 0 0 0 0 0 0 0 0 0 0 0 0 0 0 0 0 
0 0 0 0 0 0 0 0 0 0 0 0 0 0 0 0 0 0 0 0 0 0 0 0 
0 0 0 0 0 0 0 0 0 0 0 0 0 0 0 0 0 0 0 0 0 0 0 0 
0 0 0 0 0 0 0 0 0 0 0 0 0 0 0 0 0 0 0 0 0 0 0 0 
0 0 0 0 0 0 0 0 0 0 0 0 0 0 0 0 0 0 0 0 0 0 0 0 
0 0 0 0 0 0 0 0 0 0 0 0 0 0 0 0 0 0 0 0 0 
0 0 0 0 0 0 0 0 0 0 0 0 0 0 0 0 0 0 0 0 0 0 0 0 
0 0 0 0 0 0 0 0 0 0 0 0 0 0 0 0 0 0 0 0 0 0 0 0 
0 0 0 0 0 0 0 0 0 0 0 0 0 0 0 0 0 0 0 0 0 0 0 0 
0 0 0 0 0 0 0 0 0 0 0 0 0 0 0 0 0 0 0 0 0 0 0 0 
0 0 0 0 0 0 0 0 0 0 0 0 0 0 0 0 0 0 0 0 0 0 0 0 
0 0 0 0 0 0 0 0 0 0 0 0 0 0 0 0 0 0 0 0 0 0 0 0 
0 0 0 0 0 0 0 0 0 0 0 0 0 0 0 0 0 0 0 0 0 0 0 0 
0 0 0 0 0 0 0 0 0 0 0 0 0 0 0 0 0 0 0 0 0 
0 0 0 0 0 0 0 0 0 0 0 0 0 0 0 0 0 0 0 0 0 0 0 0 
0 0 0 0 0 0 0 0 0 0 0 0 0 0 0 0 0 0 0 0 0 0 0 0 
0 0 0 0 0 0 0 0 0 0 0 0 0 0 0 0 0 0 0 0 0 0 0 0 
0 0 0 0 0 0 0 0 0 0 0 0 0 0 0 0 0 0 0 0 0 0 0 0 
0 0 0 0 0 0 0 0 0 0 0 0 0 0 0 0 0 0 0 0 0 0 0 0 
0 0 0 0 0 0 0 0 0 0 0 0 0 0 0 0 0 0 0 0 0 0 0 0 
0 0 0 0 0 0 0 0 0 0 0 0 0 0 0 0 0 0 0 0 0 0 0 0 
0 0 0 0 0 0 0 0 0 0 0 0 0 0 0 0 0 0 0 0 0 
0 0 0 0 0 0 0 0 0 0 0 0 0 0 0 0 0 0 0 0 0 0 0 0 
0 0 0 0 0 0 0 0 0 0 0 0 0 0 0 0 0 0 0 0 0 0 0 0 
0 0 0 0 0 0 0 0 0 0 0 0 0 0 0 0 0 0 0 0 0 0 0 0 
0 0 0 0 0 0 0 0 0 0 0 0 0 0 0 0 0 0 0 0 0 0 0 0 
0 0 0 0 0 0 0 0 0 0 0 0 0 0 0 0 0 0 0 0 0 0 0 0 
0 0 0 0 0 0 0 0 0 0 0 0 0 0 0 0 0 0 0 0 0 0 0 0 
0 0 0 0 0 0 0 0 0 0 0 0 0 0 0 0 0 0 0 0 0 0 0 0 
0 0 0 0 0 0 0 0 0 0 0 0 0 0 0 0 0 0 0 0 0 
0 0 0 0 0 0 0 0 0 0 0 0 0 0 0 0 0 0 0 0 0 0 0 0 
0 0 0 0 0 0 0 0 0 0 0 0 0 0 0 0 0 0 0 0 0 0 0 0 
0 0 0 0 0 0 0 0 0 0 0 0 0 0 0 0 0 0 0 0 0 0 0 0 
0 0 0 0 0 0 0 0 0 0 0 0 0 0 0 0 0 0 0 0 0 0 0 0 
0 0 0 0 0 0 0 0 0 0 0 0 0 0 0 0 0 0 0 0 0 0 0 0 
0 0 0 0 0 0 0 0 0 0 0 0 0 0 0 0 0 0 0 0 0 0 0 0 
0 0 0 0 0 0 0 0 0 0 0 0 0 0 0 0 0 0 0 0 0 0 0 0 
0 0 0 0 0 0 0 0 0 0 0 0 0 0 0 0 0 0 0 0 0 
